<svg width="703" height="512" viewBox="0 0 703 512" fill="none" xmlns="http://www.w3.org/2000/svg">
<path d="M439.365 407.223C433.391 429.989 413.823 469.254 403.115 466.452C392.406 463.65 394.62 419.838 400.584 397.077C406.552 374.312 417.766 366.931 428.469 369.734C439.177 372.53 445.328 384.457 439.36 407.223H439.365Z" fill="#4991C9"/>
<path d="M434.938 407.223C428.969 429.989 410.729 453.166 400.021 450.364C389.308 447.567 384.25 415.53 390.235 392.765C397.615 364.671 410.745 362.692 421.282 366.072C434.058 370.171 440.907 384.452 434.938 407.223Z" fill="black"/>
<path d="M454.792 223.718C455.511 224.484 456.198 225.28 456.854 226.093C457.511 226.911 458.136 227.749 458.724 228.603C459.318 229.463 459.87 230.338 460.391 231.223C460.912 232.114 461.391 233.015 461.833 233.931C462.276 234.843 462.677 235.765 463.042 236.692C463.401 237.624 463.724 238.556 464 239.489C464.276 240.426 464.511 241.359 464.703 242.291C464.891 243.223 465.037 244.15 465.141 245.072C465.24 245.989 465.297 246.9 465.307 247.801C465.318 248.702 465.287 249.588 465.208 250.457C465.13 251.327 465.005 252.176 464.839 253.01C464.672 253.843 464.458 254.655 464.203 255.442C463.948 256.228 463.651 256.989 463.313 257.723C462.969 258.457 462.589 259.161 462.167 259.832C461.745 260.51 461.281 261.15 460.781 261.754C460.281 262.364 459.745 262.931 459.172 263.468C458.599 263.999 457.995 264.494 457.354 264.952C456.714 265.405 456.042 265.822 455.339 266.197C454.636 266.572 453.906 266.9 453.151 267.192C452.396 267.478 451.615 267.723 450.807 267.921C450.005 268.119 449.182 268.275 448.339 268.385C447.495 268.494 446.636 268.556 445.761 268.572C444.886 268.593 444 268.562 443.104 268.489C442.208 268.416 441.302 268.296 440.391 268.129C439.479 267.963 438.563 267.754 437.646 267.499C436.729 267.244 435.813 266.947 434.896 266.603C433.984 266.265 433.073 265.879 432.172 265.452C431.271 265.03 430.38 264.562 429.5 264.056C428.615 263.551 427.75 263.01 426.896 262.431C426.047 261.853 425.214 261.239 424.396 260.588C423.583 259.942 422.792 259.26 422.021 258.546C421.25 257.838 420.511 257.098 419.792 256.327C419.078 255.562 418.391 254.77 417.734 253.952C417.073 253.135 416.453 252.301 415.859 251.442C415.271 250.582 414.714 249.713 414.193 248.822C413.677 247.931 413.193 247.03 412.75 246.119C412.307 245.202 411.906 244.28 411.547 243.353C411.182 242.426 410.865 241.494 410.589 240.556C410.307 239.624 410.073 238.687 409.886 237.754C409.693 236.822 409.547 235.895 409.448 234.978C409.344 234.056 409.292 233.145 409.276 232.244C409.266 231.348 409.302 230.463 409.38 229.593C409.458 228.718 409.578 227.869 409.75 227.036C409.917 226.202 410.125 225.39 410.38 224.603C410.636 223.817 410.938 223.056 411.276 222.322C411.615 221.588 412 220.885 412.422 220.213C412.844 219.541 413.302 218.9 413.802 218.291C414.302 217.687 414.839 217.114 415.412 216.582C415.984 216.046 416.594 215.551 417.234 215.093C417.875 214.64 418.547 214.223 419.25 213.848C419.948 213.478 420.677 213.145 421.438 212.859C422.193 212.567 422.974 212.327 423.776 212.124C424.578 211.926 425.401 211.77 426.245 211.661C427.089 211.551 427.948 211.489 428.823 211.473C429.698 211.457 430.583 211.484 431.484 211.556C432.38 211.635 433.287 211.754 434.198 211.916C435.109 212.082 436.021 212.291 436.943 212.546C437.859 212.801 438.776 213.098 439.688 213.442C440.604 213.786 441.511 214.166 442.412 214.593C443.318 215.02 444.208 215.484 445.089 215.989C445.969 216.494 446.839 217.036 447.688 217.614C448.542 218.197 449.375 218.806 450.188 219.457C451.005 220.109 451.797 220.786 452.563 221.499C453.333 222.213 454.078 222.952 454.792 223.718Z" fill="#80ABC4"/>
<path d="M443.886 227.213C450.88 234.707 454.084 243.082 456.547 240.78C459.011 238.483 455.344 230.546 448.354 223.056C441.36 215.562 433.693 211.353 431.224 213.655C428.75 215.952 436.891 219.728 443.88 227.218L443.886 227.213Z" fill="white"/>
<path d="M447.287 360.864C447.287 362.187 447.193 363.504 447.006 364.822C446.818 366.14 446.537 367.452 446.167 368.749C445.797 370.046 445.334 371.332 444.776 372.598C444.224 373.864 443.584 375.109 442.854 376.332C442.125 377.556 441.308 378.749 440.412 379.916C439.511 381.088 438.532 382.218 437.474 383.322C436.412 384.421 435.282 385.484 434.068 386.51C432.86 387.53 431.578 388.51 430.235 389.447C428.886 390.385 427.474 391.27 426 392.109C424.526 392.952 422.995 393.739 421.412 394.473C419.823 395.207 418.193 395.89 416.511 396.515C414.828 397.14 413.104 397.702 411.344 398.207C409.584 398.718 407.787 399.161 405.964 399.546C404.141 399.931 402.292 400.254 400.422 400.51C398.552 400.77 396.667 400.963 394.771 401.093C392.87 401.223 390.969 401.286 389.063 401.286C387.157 401.286 385.256 401.223 383.354 401.093C381.459 400.963 379.573 400.77 377.703 400.51C375.834 400.254 373.985 399.931 372.162 399.546C370.339 399.161 368.542 398.718 366.782 398.207C365.021 397.702 363.297 397.14 361.615 396.515C359.938 395.89 358.302 395.207 356.714 394.473C355.131 393.739 353.599 392.952 352.125 392.109C350.651 391.27 349.24 390.385 347.891 389.447C346.547 388.51 345.266 387.53 344.058 386.51C342.844 385.484 341.714 384.421 340.651 383.322C339.594 382.218 338.615 381.088 337.714 379.916C336.818 378.749 336 377.556 335.271 376.332C334.542 375.109 333.901 373.864 333.349 372.598C332.792 371.332 332.334 370.046 331.959 368.749C331.589 367.452 331.308 366.14 331.12 364.822C330.933 363.504 330.839 362.187 330.839 360.864C330.839 359.536 330.933 358.218 331.12 356.9C331.308 355.582 331.589 354.275 331.959 352.973C332.334 351.676 332.792 350.395 333.349 349.129C333.901 347.859 334.542 346.614 335.271 345.39C336 344.171 336.818 342.973 337.714 341.806C338.615 340.64 339.594 339.504 340.651 338.405C341.714 337.301 342.844 336.239 344.058 335.218C345.266 334.192 346.547 333.213 347.891 332.275C349.24 331.343 350.651 330.452 352.125 329.614C353.599 328.775 355.131 327.984 356.714 327.249C358.302 326.515 359.938 325.832 361.615 325.213C363.297 324.588 365.021 324.02 366.782 323.515C368.542 323.01 370.339 322.562 372.162 322.176C373.985 321.796 375.834 321.473 377.703 321.213C379.573 320.957 381.459 320.76 383.354 320.629C385.256 320.504 387.157 320.437 389.063 320.437C390.969 320.437 392.87 320.504 394.771 320.629C396.667 320.76 398.552 320.957 400.422 321.213C402.292 321.473 404.141 321.796 405.964 322.176C407.787 322.562 409.584 323.01 411.344 323.515C413.104 324.02 414.828 324.588 416.511 325.213C418.193 325.832 419.823 326.515 421.412 327.249C422.995 327.984 424.526 328.775 426 329.614C427.474 330.452 428.886 331.343 430.235 332.275C431.578 333.213 432.86 334.192 434.068 335.218C435.282 336.239 436.412 337.301 437.474 338.405C438.532 339.504 439.511 340.64 440.412 341.806C441.308 342.973 442.125 344.171 442.854 345.39C443.584 346.614 444.224 347.859 444.776 349.129C445.334 350.395 445.797 351.676 446.167 352.973C446.537 354.275 446.818 355.582 447.006 356.9C447.193 358.218 447.287 359.536 447.287 360.864Z" fill="black"/>
<path d="M431.203 221.796C431.375 222.192 431.505 222.608 431.599 223.036C431.693 223.468 431.745 223.911 431.755 224.369C431.766 224.827 431.74 225.301 431.667 225.78C431.594 226.265 431.484 226.76 431.333 227.26C431.182 227.765 430.99 228.275 430.755 228.791C430.526 229.312 430.255 229.832 429.948 230.358C429.635 230.89 429.292 231.421 428.906 231.952C428.526 232.483 428.104 233.015 427.651 233.551C427.198 234.082 426.714 234.608 426.193 235.14C425.672 235.666 425.12 236.187 424.536 236.702C423.958 237.218 423.344 237.728 422.708 238.228C422.073 238.728 421.406 239.218 420.724 239.702C420.036 240.181 419.328 240.65 418.594 241.103C417.865 241.562 417.12 242.004 416.349 242.426C415.583 242.853 414.807 243.265 414.01 243.655C413.214 244.051 412.411 244.426 411.594 244.78C410.781 245.135 409.958 245.473 409.13 245.786C408.302 246.103 407.469 246.395 406.635 246.666C405.802 246.942 404.969 247.187 404.141 247.411C403.307 247.64 402.484 247.838 401.661 248.015C400.844 248.192 400.031 248.343 399.229 248.473C398.432 248.598 397.641 248.697 396.87 248.775C396.094 248.848 395.333 248.9 394.594 248.921C393.854 248.947 393.135 248.942 392.438 248.916C391.734 248.885 391.063 248.832 390.406 248.749C389.755 248.666 389.135 248.562 388.536 248.431C387.938 248.296 387.37 248.14 386.833 247.957C386.297 247.775 385.792 247.567 385.318 247.338C384.844 247.108 384.406 246.853 384.005 246.577C383.604 246.301 383.24 246.004 382.906 245.681C382.578 245.364 382.286 245.025 382.036 244.661C381.781 244.301 381.568 243.926 381.396 243.525C381.224 243.129 381.089 242.718 380.995 242.286C380.906 241.858 380.854 241.416 380.844 240.952C380.828 240.494 380.859 240.025 380.932 239.541C381 239.056 381.115 238.567 381.266 238.062C381.417 237.562 381.609 237.051 381.839 236.53C382.073 236.015 382.344 235.494 382.651 234.963C382.958 234.437 383.307 233.905 383.688 233.374C384.073 232.843 384.49 232.306 384.943 231.775C385.401 231.244 385.885 230.713 386.406 230.187C386.927 229.661 387.479 229.14 388.057 228.624C388.641 228.108 389.25 227.598 389.891 227.098C390.526 226.598 391.188 226.103 391.875 225.624C392.563 225.145 393.271 224.676 394 224.218C394.729 223.765 395.479 223.322 396.245 222.895C397.01 222.468 397.792 222.062 398.589 221.666C399.38 221.275 400.188 220.9 401 220.546C401.818 220.187 402.641 219.853 403.469 219.536C404.297 219.223 405.13 218.926 405.964 218.655C406.797 218.385 407.63 218.135 408.458 217.911C409.292 217.687 410.115 217.483 410.938 217.306C411.755 217.129 412.568 216.978 413.365 216.853C414.167 216.728 414.953 216.624 415.729 216.551C416.505 216.473 417.26 216.426 418 216.4C418.745 216.379 419.464 216.379 420.161 216.411C420.859 216.442 421.536 216.494 422.188 216.577C422.839 216.655 423.464 216.765 424.063 216.895C424.661 217.03 425.224 217.187 425.766 217.369C426.302 217.551 426.807 217.754 427.276 217.989C427.75 218.218 428.188 218.473 428.594 218.749C428.995 219.025 429.359 219.322 429.688 219.64C430.021 219.963 430.307 220.301 430.563 220.661C430.813 221.02 431.026 221.4 431.203 221.796Z" fill="black"/>
<path d="M320.578 303.728C320.578 263.833 351.234 215.614 389.057 215.614C426.88 215.614 457.536 263.833 457.536 303.728C457.536 343.629 426.88 360.083 389.057 360.083C351.234 360.083 320.578 343.624 320.578 303.728Z" fill="#4991C9"/>
<path d="M371.881 205.859C380.49 201.275 388.292 199.114 394.766 211.265C401.24 223.411 403.933 245.275 395.323 249.853C386.714 254.431 370.063 239.994 363.589 227.843C357.115 215.687 363.271 210.431 371.881 205.853V205.859Z" fill="black"/>
<path d="M316.48 397.129C310.235 419.822 314.407 449.01 325.078 451.942C335.756 454.874 356.188 429.676 362.417 406.978C370.115 378.968 359.74 370.692 348.922 368.343C335.813 365.494 322.724 374.431 316.474 397.124L316.48 397.129Z" fill="#31E3D8"/>
<path d="M316.479 397.129C310.235 419.822 307.49 463.598 318.167 466.53C328.839 469.463 348.886 430.437 355.136 407.744C361.38 385.051 355.375 373.056 344.703 370.119C334.026 367.187 322.729 374.431 316.479 397.124V397.129Z" fill="#AFD8F9"/>
<path d="M343.292 373.098C343.578 373.385 343.797 373.734 343.948 374.155C344.094 374.572 344.172 375.046 344.172 375.577C344.172 376.114 344.104 376.692 343.958 377.322C343.813 377.947 343.594 378.614 343.307 379.312C343.021 380.01 342.672 380.734 342.255 381.473C341.839 382.218 341.365 382.968 340.833 383.728C340.302 384.489 339.724 385.239 339.099 385.984C338.474 386.728 337.813 387.452 337.115 388.155C336.422 388.859 335.703 389.525 334.969 390.161C334.229 390.791 333.485 391.379 332.729 391.916C331.979 392.458 331.235 392.942 330.495 393.364C329.755 393.791 329.037 394.15 328.339 394.447C327.646 394.739 326.985 394.963 326.354 395.114C325.729 395.27 325.151 395.348 324.615 395.353C324.083 395.359 323.604 395.286 323.188 395.145C322.766 394.999 322.412 394.786 322.12 394.499C321.833 394.213 321.615 393.864 321.464 393.447C321.318 393.025 321.24 392.551 321.24 392.02C321.24 391.484 321.307 390.905 321.453 390.275C321.599 389.65 321.818 388.984 322.104 388.286C322.391 387.588 322.74 386.864 323.156 386.124C323.573 385.379 324.047 384.629 324.578 383.869C325.11 383.114 325.688 382.359 326.313 381.614C326.938 380.869 327.599 380.145 328.297 379.442C328.99 378.739 329.708 378.072 330.443 377.442C331.182 376.806 331.927 376.218 332.682 375.681C333.432 375.14 334.177 374.655 334.917 374.234C335.656 373.806 336.375 373.447 337.073 373.15C337.766 372.859 338.427 372.635 339.057 372.484C339.682 372.327 340.261 372.249 340.797 372.244C341.328 372.239 341.807 372.312 342.224 372.452C342.646 372.598 343 372.812 343.292 373.098Z" fill="white"/>
<path d="M314.235 406.973C313.724 409.655 313.261 412.457 312.854 415.327C314.125 417.64 315.485 419.859 316.933 421.989C321.558 428.775 327.12 434.64 333.453 439.4C335.729 441.109 337.933 442.546 340 443.765C340.792 442.343 341.563 440.885 342.323 439.411C340.396 438.27 338.328 436.916 336.214 435.312C329.266 430.036 320.599 421.176 314.229 406.973H314.235Z" fill="#4991C9"/>
<path d="M311.698 425.327C311.443 428.129 311.255 430.931 311.13 433.676C315.656 440.145 321.031 445.739 327.125 450.322C329.292 451.957 331.396 453.343 333.38 454.52C334.292 453.218 335.198 451.838 336.104 450.395C334.141 449.249 332.042 447.874 329.886 446.239C324.235 441.952 317.453 435.296 311.693 425.327H311.698Z" fill="#4991C9"/>
<path d="M436.229 276.661C438.578 289.046 431.886 315.999 417.834 318.661C403.776 321.322 387.677 298.687 385.328 286.306C382.979 273.921 433.88 264.286 436.235 276.666L436.229 276.661Z" fill="#3E779E"/>
<path d="M430.318 282.077C432.172 291.853 427.484 313.004 417.13 314.968C406.771 316.926 394.661 298.957 392.807 289.181C390.953 279.411 428.463 272.306 430.318 282.077Z" fill="#31E3D8"/>
<path d="M349.417 246.551C349.834 247.312 350.125 248.135 350.292 249.015C350.453 249.895 350.485 250.822 350.391 251.791C350.292 252.76 350.063 253.754 349.709 254.775C349.354 255.796 348.875 256.822 348.276 257.853C347.672 258.885 346.964 259.9 346.141 260.905C345.323 261.905 344.407 262.874 343.396 263.812C342.381 264.744 341.297 265.629 340.136 266.463C338.974 267.296 337.756 268.062 336.49 268.76C335.224 269.457 333.927 270.072 332.599 270.609C331.276 271.145 329.948 271.588 328.615 271.942C327.282 272.296 325.974 272.551 324.688 272.707C323.396 272.864 322.157 272.921 320.964 272.879C319.771 272.832 318.651 272.687 317.594 272.442C316.542 272.197 315.578 271.859 314.709 271.421C313.834 270.989 313.068 270.463 312.412 269.853C311.756 269.244 311.214 268.562 310.797 267.801C310.375 267.041 310.084 266.218 309.922 265.338C309.756 264.452 309.724 263.525 309.823 262.556C309.922 261.588 310.146 260.593 310.5 259.572C310.86 258.551 311.339 257.525 311.938 256.499C312.537 255.468 313.25 254.447 314.068 253.447C314.891 252.442 315.808 251.473 316.818 250.541C317.828 249.603 318.917 248.718 320.078 247.885C321.24 247.056 322.453 246.291 323.719 245.593C324.99 244.895 326.287 244.275 327.61 243.739C328.938 243.207 330.266 242.76 331.599 242.405C332.927 242.051 334.24 241.796 335.526 241.64C336.813 241.484 338.052 241.426 339.245 241.473C340.438 241.515 341.563 241.661 342.615 241.905C343.667 242.15 344.631 242.489 345.506 242.926C346.375 243.364 347.141 243.885 347.797 244.494C348.459 245.103 348.995 245.791 349.417 246.551Z" fill="black"/>
<path d="M481.979 253.244C482.271 254.025 482.49 254.822 482.641 255.64C482.797 256.457 482.875 257.275 482.88 258.098C482.886 258.916 482.818 259.723 482.677 260.52C482.537 261.312 482.328 262.077 482.047 262.812C481.766 263.546 481.417 264.239 481.005 264.885C480.594 265.536 480.125 266.124 479.599 266.661C479.073 267.202 478.5 267.671 477.88 268.077C477.261 268.478 476.604 268.812 475.917 269.067C475.224 269.327 474.516 269.504 473.781 269.603C473.047 269.707 472.307 269.723 471.557 269.661C470.807 269.603 470.063 269.463 469.328 269.239C468.594 269.02 467.875 268.723 467.182 268.353C466.49 267.984 465.828 267.541 465.203 267.036C464.573 266.53 463.995 265.963 463.458 265.338C462.927 264.718 462.448 264.046 462.026 263.327C461.609 262.614 461.25 261.864 460.958 261.082C460.667 260.301 460.443 259.499 460.292 258.681C460.141 257.864 460.063 257.046 460.057 256.223C460.052 255.405 460.12 254.598 460.261 253.806C460.396 253.01 460.609 252.249 460.891 251.515C461.172 250.775 461.521 250.088 461.932 249.437C462.344 248.791 462.807 248.197 463.333 247.661C463.859 247.124 464.432 246.65 465.052 246.249C465.672 245.843 466.328 245.51 467.021 245.254C467.708 244.994 468.422 244.817 469.156 244.718C469.891 244.619 470.63 244.598 471.38 244.661C472.13 244.723 472.87 244.864 473.609 245.082C474.344 245.301 475.057 245.598 475.755 245.968C476.448 246.343 477.109 246.78 477.734 247.286C478.359 247.796 478.943 248.359 479.474 248.984C480.011 249.609 480.484 250.275 480.906 250.994C481.328 251.713 481.682 252.457 481.979 253.244Z" fill="black"/>
<path d="M477.406 253.135C477.698 253.853 477.943 254.588 478.146 255.338C478.344 256.088 478.5 256.853 478.615 257.629C478.724 258.405 478.792 259.187 478.807 259.978C478.828 260.77 478.802 261.567 478.729 262.369C478.656 263.171 478.542 263.973 478.375 264.775C478.213 265.583 478.005 266.379 477.75 267.176C477.5 267.978 477.203 268.765 476.859 269.551C476.521 270.333 476.141 271.109 475.713 271.869C475.292 272.629 474.828 273.379 474.323 274.114C473.818 274.848 473.276 275.562 472.698 276.26C472.12 276.958 471.505 277.635 470.854 278.291C470.208 278.947 469.526 279.577 468.818 280.187C468.104 280.796 467.365 281.374 466.599 281.926C465.828 282.478 465.036 282.999 464.219 283.494C463.401 283.989 462.568 284.447 461.708 284.874C460.849 285.301 459.974 285.697 459.083 286.056C458.193 286.416 457.292 286.739 456.38 287.025C455.463 287.312 454.542 287.562 453.609 287.775C452.682 287.989 451.745 288.161 450.812 288.296C449.875 288.431 448.937 288.525 448.005 288.583C447.073 288.64 446.141 288.655 445.219 288.635C444.297 288.614 443.385 288.551 442.484 288.452C441.583 288.353 440.693 288.213 439.823 288.036C438.948 287.853 438.094 287.64 437.26 287.385C436.427 287.129 435.615 286.838 434.823 286.51C434.031 286.181 433.271 285.822 432.536 285.421C431.797 285.025 431.094 284.593 430.417 284.129C429.74 283.666 429.099 283.166 428.49 282.64C427.88 282.114 427.307 281.562 426.771 280.978C426.234 280.395 425.734 279.786 425.276 279.15C424.818 278.515 424.401 277.853 424.026 277.176C423.646 276.494 423.312 275.796 423.021 275.077C422.734 274.359 422.484 273.624 422.286 272.874C422.083 272.124 421.927 271.359 421.812 270.583C421.703 269.806 421.641 269.025 421.62 268.234C421.599 267.442 421.625 266.645 421.698 265.843C421.771 265.041 421.891 264.239 422.052 263.431C422.213 262.629 422.422 261.833 422.677 261.03C422.932 260.234 423.229 259.447 423.568 258.661C423.906 257.879 424.292 257.103 424.713 256.343C425.141 255.577 425.604 254.833 426.104 254.098C426.609 253.364 427.151 252.65 427.729 251.952C428.312 251.254 428.922 250.577 429.573 249.921C430.219 249.265 430.901 248.629 431.615 248.025C432.323 247.416 433.062 246.838 433.833 246.286C434.599 245.734 435.391 245.213 436.208 244.718C437.026 244.223 437.865 243.765 438.719 243.338C439.578 242.911 440.453 242.515 441.344 242.155C442.234 241.796 443.135 241.473 444.052 241.187C444.963 240.9 445.885 240.65 446.818 240.437C447.75 240.223 448.682 240.051 449.62 239.916C450.552 239.78 451.49 239.687 452.422 239.629C453.359 239.572 454.286 239.551 455.208 239.577C456.13 239.598 457.042 239.661 457.943 239.76C458.844 239.859 459.734 239.999 460.604 240.176C461.479 240.359 462.333 240.572 463.167 240.827C464.005 241.083 464.818 241.374 465.604 241.702C466.396 242.025 467.156 242.39 467.896 242.791C468.63 243.187 469.338 243.619 470.01 244.083C470.687 244.546 471.333 245.041 471.943 245.572C472.552 246.098 473.125 246.65 473.661 247.234C474.198 247.817 474.693 248.426 475.151 249.062C475.609 249.697 476.026 250.353 476.406 251.036C476.781 251.718 477.115 252.416 477.406 253.135Z" fill="#AFD8F9"/>
<path d="M435.865 269.364C436.063 270.218 436.219 271.072 436.333 271.926C436.448 272.78 436.521 273.619 436.552 274.442C436.583 275.265 436.568 276.056 436.516 276.812C436.458 277.572 436.359 278.286 436.224 278.952C436.083 279.619 435.906 280.228 435.688 280.775C435.469 281.327 435.214 281.806 434.927 282.218C434.641 282.624 434.323 282.957 433.974 283.213C433.625 283.468 433.255 283.64 432.865 283.728C432.469 283.822 432.063 283.827 431.641 283.749C431.214 283.671 430.787 283.51 430.349 283.265C429.906 283.02 429.474 282.702 429.037 282.301C428.599 281.9 428.177 281.431 427.761 280.895C427.344 280.353 426.943 279.754 426.563 279.093C426.182 278.437 425.823 277.728 425.495 276.973C425.162 276.223 424.859 275.437 424.594 274.614C424.323 273.796 424.094 272.963 423.896 272.109C423.698 271.254 423.547 270.4 423.427 269.546C423.313 268.692 423.24 267.853 423.208 267.03C423.177 266.207 423.193 265.416 423.245 264.655C423.302 263.9 423.401 263.187 423.542 262.52C423.677 261.848 423.859 261.244 424.073 260.692C424.292 260.145 424.547 259.666 424.833 259.254C425.12 258.848 425.438 258.515 425.787 258.26C426.135 258.004 426.505 257.832 426.896 257.744C427.292 257.65 427.698 257.645 428.12 257.723C428.547 257.801 428.974 257.963 429.417 258.207C429.854 258.447 430.292 258.77 430.724 259.171C431.162 259.567 431.589 260.036 432.005 260.577C432.417 261.119 432.818 261.718 433.198 262.374C433.578 263.036 433.938 263.744 434.266 264.494C434.599 265.249 434.901 266.036 435.167 266.853C435.438 267.676 435.667 268.51 435.865 269.364Z" fill="#4991C9"/>
<path d="M451.281 249.77C442.318 252.431 435.844 257.843 435.047 254.588C434.25 251.327 440.88 246.53 449.844 243.874C458.807 241.213 466.719 241.697 467.505 244.952C468.302 248.207 460.24 247.114 451.276 249.77H451.281Z" fill="white"/>
<path d="M461.583 89.0252C461.922 90.2336 462.224 91.4471 462.479 92.6711C462.74 93.9002 462.958 95.1242 463.13 96.3533C463.307 97.5825 463.438 98.8117 463.526 100.036C463.615 101.26 463.656 102.473 463.656 103.676C463.656 104.879 463.615 106.072 463.526 107.244C463.443 108.416 463.313 109.572 463.141 110.708C462.964 111.838 462.75 112.947 462.495 114.025C462.235 115.109 461.938 116.155 461.594 117.171C461.255 118.192 460.875 119.171 460.458 120.119C460.042 121.062 459.583 121.968 459.089 122.833C458.594 123.697 458.068 124.515 457.5 125.286C456.938 126.062 456.344 126.786 455.714 127.463C455.083 128.14 454.427 128.765 453.74 129.338C453.052 129.905 452.339 130.426 451.599 130.89C450.86 131.353 450.099 131.76 449.313 132.109C448.526 132.458 447.724 132.744 446.901 132.978C446.083 133.208 445.245 133.379 444.391 133.494C443.542 133.603 442.677 133.655 441.807 133.65C440.932 133.64 440.057 133.572 439.172 133.442C438.287 133.317 437.396 133.124 436.505 132.879C435.615 132.629 434.729 132.322 433.844 131.958C432.958 131.593 432.078 131.171 431.203 130.692C430.333 130.218 429.469 129.681 428.62 129.098C427.766 128.51 426.932 127.869 426.11 127.181C425.287 126.489 424.479 125.749 423.698 124.963C422.912 124.176 422.151 123.348 421.406 122.473C420.667 121.598 419.953 120.681 419.266 119.723C418.578 118.77 417.917 117.775 417.287 116.749C416.656 115.723 416.063 114.666 415.495 113.577C414.932 112.489 414.401 111.374 413.906 110.234C413.412 109.098 412.953 107.937 412.537 106.76C412.115 105.577 411.735 104.385 411.391 103.176C411.052 101.968 410.75 100.754 410.49 99.5304C410.235 98.3013 410.016 97.0773 409.844 95.8481C409.667 94.619 409.537 93.3898 409.448 92.1658C409.36 90.9471 409.318 89.7336 409.318 88.5252C409.318 87.3221 409.36 86.1346 409.443 84.9575C409.531 83.7856 409.662 82.6294 409.833 81.4992C410.005 80.3638 410.224 79.2596 410.479 78.1763C410.74 77.0981 411.037 76.0461 411.375 75.0304C411.719 74.0096 412.094 73.0304 412.516 72.0825C412.932 71.1398 413.391 70.2335 413.886 69.369C414.38 68.5096 414.906 67.6867 415.469 66.9158C416.037 66.1398 416.63 65.4158 417.261 64.7388C417.891 64.0617 418.547 63.4367 419.235 62.869C419.922 62.296 420.636 61.7752 421.375 61.3117C422.115 60.8533 422.875 60.4471 423.662 60.0981C424.448 59.7492 425.25 59.4575 426.073 59.2231C426.891 58.994 427.729 58.8221 428.578 58.7075C429.432 58.5981 430.292 58.546 431.167 58.5513C432.037 58.5617 432.917 58.6294 433.802 58.7596C434.688 58.8898 435.578 59.0773 436.469 59.3221C437.354 59.5721 438.245 59.8794 439.13 60.244C440.016 60.6085 440.896 61.0304 441.766 61.5096C442.641 61.9888 443.505 62.52 444.354 63.1086C445.208 63.6919 446.042 64.3325 446.865 65.02C447.688 65.7127 448.49 66.4523 449.276 67.2388C450.063 68.0252 450.823 68.8533 451.563 69.7283C452.307 70.6033 453.021 71.52 453.708 72.4783C454.396 73.4315 455.057 74.4263 455.682 75.4523C456.313 76.4783 456.912 77.5356 457.479 78.6242C458.042 79.7127 458.573 80.8273 459.068 81.9679C459.563 83.1086 460.021 84.2648 460.438 85.4471C460.86 86.6242 461.24 87.8169 461.583 89.0252Z" fill="black"/>
<path d="M447.536 94.4001C461.615 144.239 430.958 217.921 372.151 234.504C313.344 251.088 248.656 204.291 234.578 154.452C220.5 104.619 262.359 70.6085 321.167 54.0251C379.974 37.4418 433.453 44.5564 447.536 94.3949V94.4001Z" fill="#AFD8F9"/>
<path d="M296.464 83.0303C301.568 86.8064 288.948 91.0043 281.24 101.405C273.531 111.806 273.656 124.478 268.552 120.702C263.448 116.926 265.557 105.437 273.271 95.0356C280.974 84.6345 291.359 79.2543 296.464 83.0303Z" fill="white"/>
<path d="M384.537 91.7075C378.995 95.8741 375.808 70.4887 360.042 46.6137C368.631 45.8533 376.901 45.7856 384.714 46.4887C392.026 67.4002 389.073 88.2908 384.537 91.7075Z" fill="#4991C9"/>
<path d="M365.714 93.6398C361.042 99.2544 351.354 72.2908 327.995 52.2023C336.844 49.9731 345.526 48.3012 353.953 47.2648C367.25 66.4835 369.506 89.0877 365.719 93.6398H365.714Z" fill="#4991C9"/>
<path d="M273.266 142.129C273.604 143.338 273.906 144.551 274.161 145.78C274.422 147.004 274.641 148.228 274.813 149.457C274.99 150.692 275.12 151.916 275.208 153.14C275.297 154.364 275.339 155.577 275.339 156.78C275.339 157.984 275.297 159.176 275.208 160.348C275.125 161.525 274.995 162.676 274.823 163.812C274.646 164.942 274.432 166.051 274.177 167.129C273.917 168.213 273.62 169.26 273.281 170.275C272.938 171.296 272.557 172.275 272.141 173.223C271.724 174.166 271.266 175.072 270.771 175.937C270.276 176.801 269.75 177.619 269.182 178.39C268.62 179.166 268.026 179.89 267.396 180.567C266.766 181.244 266.109 181.869 265.422 182.442C264.734 183.015 264.021 183.53 263.281 183.994C262.542 184.457 261.781 184.864 260.995 185.213C260.208 185.562 259.406 185.848 258.583 186.082C257.766 186.312 256.927 186.484 256.073 186.598C255.224 186.713 254.359 186.76 253.49 186.754C252.615 186.744 251.74 186.676 250.854 186.546C249.969 186.421 249.078 186.228 248.188 185.984C247.297 185.734 246.411 185.426 245.526 185.062C244.641 184.697 243.76 184.275 242.885 183.796C242.016 183.322 241.151 182.786 240.302 182.202C239.448 181.614 238.615 180.973 237.792 180.286C236.969 179.593 236.161 178.859 235.38 178.072C234.594 177.28 233.833 176.452 233.089 175.577C232.349 174.702 231.635 173.786 230.948 172.827C230.26 171.874 229.599 170.885 228.969 169.853C228.339 168.827 227.745 167.77 227.177 166.681C226.615 165.593 226.083 164.478 225.589 163.338C225.094 162.202 224.635 161.041 224.219 159.864C223.797 158.681 223.417 157.489 223.073 156.28C222.734 155.072 222.432 153.859 222.172 152.635C221.917 151.411 221.698 150.181 221.526 148.952C221.349 147.723 221.219 146.494 221.13 145.27C221.042 144.051 221 142.838 221 141.629C221 140.426 221.042 139.239 221.125 138.062C221.214 136.89 221.344 135.734 221.516 134.603C221.687 133.468 221.906 132.364 222.161 131.28C222.422 130.202 222.719 129.15 223.057 128.135C223.401 127.114 223.776 126.135 224.198 125.187C224.615 124.244 225.073 123.338 225.568 122.473C226.063 121.614 226.589 120.791 227.151 120.02C227.719 119.244 228.313 118.52 228.943 117.843C229.573 117.166 230.229 116.546 230.917 115.973C231.604 115.4 232.318 114.879 233.057 114.416C233.797 113.957 234.557 113.551 235.344 113.202C236.13 112.853 236.932 112.562 237.755 112.327C238.573 112.098 239.411 111.926 240.26 111.812C241.115 111.702 241.974 111.65 242.849 111.655C243.724 111.666 244.599 111.734 245.484 111.864C246.37 111.994 247.26 112.181 248.151 112.426C249.036 112.676 249.927 112.984 250.813 113.348C251.698 113.713 252.578 114.135 253.448 114.614C254.323 115.093 255.188 115.624 256.036 116.213C256.891 116.796 257.724 117.437 258.547 118.124C259.37 118.817 260.172 119.556 260.958 120.343C261.745 121.129 262.505 121.957 263.25 122.832C263.99 123.707 264.703 124.624 265.391 125.582C266.078 126.536 266.74 127.53 267.365 128.556C267.995 129.582 268.594 130.64 269.161 131.728C269.724 132.817 270.255 133.931 270.75 135.072C271.245 136.213 271.703 137.369 272.12 138.551C272.542 139.728 272.922 140.921 273.266 142.129Z" fill="black"/>
<path d="M441.688 107.504C451.792 143.26 429.261 199.629 385.328 212.015C341.401 224.405 292.703 188.129 282.599 152.374C272.495 116.614 304.818 94.9159 348.75 82.5252C392.683 70.1346 431.594 71.7492 441.688 107.504Z" fill="white"/>
<path d="M442.422 110.103C452.203 144.728 430.24 199.353 387.521 211.4C344.797 223.452 297.495 188.358 287.714 153.733C277.938 119.114 309.38 98.0564 352.104 86.0147C394.828 73.9626 432.651 75.4835 442.427 110.108L442.422 110.103Z" fill="black"/>
<path d="M386.229 171.108C385.844 177.322 375.672 192.14 366.115 191.546C356.557 190.952 351.224 175.166 351.609 168.957C351.995 162.744 359.115 173.463 368.672 174.056C378.229 174.655 386.62 164.9 386.234 171.108H386.229Z" fill="#31E3D8"/>
<path d="M353.167 130.978C353.422 131.827 353.63 132.681 353.797 133.541C353.964 134.4 354.083 135.249 354.156 136.083C354.229 136.921 354.25 137.723 354.224 138.504C354.198 139.28 354.125 140.015 354.005 140.708C353.88 141.4 353.714 142.036 353.5 142.614C353.286 143.192 353.031 143.708 352.729 144.15C352.432 144.593 352.099 144.963 351.729 145.254C351.359 145.546 350.964 145.754 350.531 145.879C350.104 146.01 349.656 146.051 349.188 146.015C348.719 145.973 348.234 145.848 347.745 145.64C347.25 145.437 346.755 145.15 346.26 144.78C345.76 144.416 345.271 143.978 344.786 143.468C344.307 142.958 343.839 142.385 343.391 141.749C342.938 141.114 342.516 140.426 342.115 139.687C341.714 138.952 341.349 138.176 341.016 137.369C340.682 136.562 340.385 135.728 340.135 134.879C339.88 134.03 339.667 133.176 339.5 132.317C339.333 131.458 339.214 130.609 339.141 129.775C339.073 128.942 339.047 128.135 339.073 127.353C339.099 126.577 339.172 125.843 339.297 125.15C339.417 124.458 339.583 123.822 339.797 123.244C340.016 122.666 340.271 122.155 340.568 121.708C340.865 121.265 341.198 120.9 341.568 120.609C341.938 120.317 342.339 120.103 342.766 119.978C343.193 119.848 343.641 119.806 344.109 119.843C344.578 119.885 345.063 120.01 345.552 120.218C346.047 120.426 346.542 120.713 347.042 121.077C347.536 121.442 348.026 121.879 348.51 122.39C348.995 122.9 349.458 123.473 349.911 124.114C350.359 124.749 350.781 125.431 351.182 126.171C351.583 126.905 351.948 127.681 352.281 128.489C352.615 129.296 352.911 130.129 353.167 130.978Z" fill="#31E3D8"/>
<path d="M425.115 115.426C422.901 108.051 414.834 103.952 407.094 106.27C399.349 108.588 394.87 116.442 397.079 123.817C399.287 131.192 401.917 117.161 409.662 114.838C417.401 112.52 427.318 122.796 425.115 115.426Z" fill="#31E3D8"/>
<path d="M393.177 266.817C382.344 259.51 393.469 258.072 393.469 258.072L410.146 257.52C403.287 246.489 404.933 238.119 407.641 234.572C409.287 232.421 412.25 234.025 413.479 236.265C413.479 236.265 416.198 246.744 420.86 257.291C423.474 263.202 432.474 259.088 433.474 272.286C434.12 280.786 421.005 286.067 413.021 286.332L399.25 285.817C390.922 284.114 396.709 279.124 394.255 276.275C389.141 270.327 395.375 268.301 393.177 266.812V266.817Z" fill="black"/>
<path d="M329.724 249.15C330.407 249.53 331.068 249.952 331.698 250.421C332.328 250.89 332.933 251.4 333.506 251.952C334.078 252.504 334.62 253.093 335.125 253.723C335.631 254.353 336.105 255.02 336.542 255.723C336.98 256.426 337.381 257.161 337.745 257.931C338.11 258.697 338.433 259.494 338.719 260.322C339.006 261.145 339.25 261.999 339.459 262.874C339.662 263.749 339.828 264.645 339.953 265.567C340.078 266.484 340.157 267.416 340.198 268.369C340.24 269.317 340.235 270.28 340.193 271.254C340.151 272.228 340.063 273.213 339.938 274.197C339.813 275.187 339.641 276.181 339.433 277.171C339.224 278.166 338.974 279.155 338.688 280.145C338.396 281.135 338.068 282.114 337.703 283.088C337.334 284.062 336.933 285.025 336.49 285.978C336.047 286.926 335.573 287.864 335.063 288.78C334.552 289.697 334.011 290.593 333.438 291.468C332.86 292.348 332.256 293.197 331.625 294.025C330.99 294.848 330.328 295.645 329.641 296.416C328.953 297.181 328.245 297.916 327.511 298.619C326.776 299.322 326.021 299.989 325.25 300.619C324.48 301.249 323.688 301.838 322.886 302.39C322.078 302.942 321.261 303.452 320.433 303.921C319.605 304.39 318.766 304.812 317.922 305.192C317.078 305.572 316.23 305.905 315.375 306.197C314.521 306.484 313.667 306.723 312.813 306.921C311.964 307.114 311.115 307.26 310.266 307.353C309.422 307.452 308.589 307.499 307.761 307.499C306.933 307.499 306.115 307.452 305.313 307.353C304.506 307.26 303.719 307.114 302.948 306.916C302.177 306.723 301.427 306.484 300.693 306.197C299.964 305.905 299.256 305.572 298.568 305.192C297.881 304.812 297.224 304.385 296.594 303.921C295.959 303.452 295.36 302.942 294.787 302.39C294.214 301.838 293.672 301.244 293.167 300.614C292.657 299.984 292.188 299.317 291.75 298.614C291.313 297.916 290.912 297.176 290.547 296.411C290.183 295.64 289.86 294.843 289.573 294.02C289.287 293.192 289.042 292.343 288.834 291.468C288.625 290.588 288.464 289.692 288.339 288.775C288.214 287.859 288.136 286.921 288.094 285.973C288.052 285.02 288.052 284.062 288.099 283.088C288.141 282.109 288.23 281.129 288.355 280.14C288.48 279.15 288.651 278.161 288.86 277.166C289.068 276.176 289.318 275.181 289.605 274.197C289.896 273.208 290.224 272.223 290.589 271.249C290.959 270.275 291.36 269.312 291.802 268.364C292.24 267.411 292.719 266.478 293.23 265.562C293.74 264.645 294.282 263.744 294.855 262.869C295.427 261.994 296.037 261.145 296.667 260.317C297.302 259.494 297.964 258.697 298.651 257.926C299.339 257.161 300.047 256.426 300.782 255.723C301.516 255.02 302.266 254.353 303.042 253.723C303.813 253.093 304.605 252.499 305.407 251.952C306.214 251.4 307.032 250.89 307.86 250.421C308.688 249.952 309.526 249.525 310.37 249.145C311.214 248.765 312.063 248.431 312.917 248.145C313.771 247.859 314.625 247.614 315.474 247.421C316.328 247.228 317.177 247.082 318.021 246.984C318.87 246.89 319.703 246.838 320.532 246.838C321.36 246.838 322.177 246.89 322.98 246.984C323.782 247.082 324.573 247.228 325.344 247.421C326.115 247.619 326.865 247.859 327.599 248.145C328.328 248.437 329.037 248.77 329.724 249.15Z" fill="#AFD8F9"/>
<path d="M299.927 274.843C304.912 265.885 311.896 260.265 308.943 258.629C306 256.994 299.568 262.926 294.589 271.885C289.61 280.838 287.969 289.426 290.917 291.062C293.86 292.697 294.948 283.801 299.927 274.848V274.843Z" fill="white"/>
<path d="M321.958 300.739C322.641 301.306 323.302 301.885 323.953 302.484C324.604 303.077 325.234 303.687 325.849 304.301C326.464 304.921 327.057 305.551 327.63 306.187C328.203 306.822 328.75 307.463 329.276 308.109C329.802 308.76 330.302 309.405 330.776 310.062C331.245 310.713 331.693 311.364 332.109 312.015C332.521 312.666 332.906 313.312 333.261 313.952C333.62 314.598 333.938 315.234 334.229 315.864C334.521 316.489 334.776 317.108 335 317.718C335.224 318.327 335.412 318.921 335.568 319.504C335.719 320.088 335.839 320.655 335.922 321.207C336.005 321.76 336.052 322.296 336.063 322.806C336.073 323.322 336.047 323.817 335.99 324.291C335.927 324.765 335.833 325.213 335.698 325.64C335.568 326.067 335.401 326.468 335.203 326.848C335 327.223 334.766 327.572 334.495 327.895C334.224 328.218 333.922 328.515 333.589 328.78C333.255 329.046 332.886 329.28 332.49 329.484C332.094 329.692 331.667 329.864 331.214 330.01C330.755 330.155 330.276 330.265 329.766 330.348C329.255 330.431 328.724 330.478 328.167 330.494C327.609 330.515 327.026 330.499 326.427 330.452C325.823 330.405 325.203 330.327 324.563 330.218C323.922 330.103 323.271 329.963 322.599 329.791C321.927 329.619 321.24 329.416 320.547 329.181C319.849 328.947 319.141 328.687 318.427 328.395C317.714 328.103 316.99 327.78 316.266 327.431C315.537 327.088 314.807 326.713 314.078 326.312C313.349 325.911 312.615 325.489 311.886 325.036C311.162 324.588 310.432 324.119 309.714 323.624C308.995 323.135 308.287 322.619 307.583 322.088C306.88 321.556 306.188 321.004 305.505 320.437C304.828 319.869 304.162 319.291 303.511 318.692C302.859 318.098 302.229 317.489 301.615 316.874C301 316.254 300.406 315.624 299.833 314.989C299.261 314.353 298.714 313.713 298.188 313.067C297.662 312.416 297.162 311.77 296.693 311.114C296.219 310.463 295.776 309.812 295.359 309.161C294.943 308.51 294.557 307.864 294.203 307.223C293.849 306.577 293.526 305.942 293.234 305.317C292.943 304.687 292.688 304.067 292.464 303.457C292.24 302.848 292.052 302.254 291.901 301.671C291.745 301.088 291.625 300.52 291.547 299.968C291.464 299.416 291.417 298.879 291.401 298.369C291.391 297.853 291.417 297.359 291.479 296.885C291.537 296.411 291.636 295.963 291.766 295.536C291.896 295.108 292.063 294.707 292.266 294.327C292.464 293.952 292.703 293.603 292.969 293.28C293.24 292.957 293.542 292.661 293.875 292.395C294.214 292.135 294.578 291.895 294.974 291.692C295.37 291.484 295.797 291.312 296.25 291.166C296.708 291.02 297.188 290.911 297.698 290.827C298.208 290.744 298.74 290.697 299.302 290.681C299.859 290.661 300.438 290.676 301.042 290.723C301.641 290.77 302.261 290.848 302.901 290.957C303.542 291.072 304.198 291.213 304.87 291.385C305.542 291.556 306.224 291.76 306.922 291.994C307.615 292.228 308.323 292.489 309.037 292.78C309.75 293.072 310.474 293.395 311.198 293.744C311.927 294.088 312.656 294.463 313.386 294.864C314.12 295.265 314.849 295.687 315.578 296.14C316.307 296.588 317.031 297.056 317.75 297.551C318.469 298.041 319.182 298.556 319.886 299.088C320.589 299.619 321.276 300.171 321.958 300.739Z" fill="black"/>
<path d="M345.297 297.952C346.302 298.26 347.292 298.603 348.271 298.984C349.25 299.364 350.209 299.78 351.146 300.228C352.089 300.676 353.005 301.155 353.896 301.671C354.792 302.181 355.662 302.723 356.5 303.296C357.339 303.864 358.146 304.463 358.927 305.088C359.703 305.713 360.443 306.364 361.151 307.036C361.86 307.707 362.526 308.4 363.156 309.114C363.787 309.827 364.375 310.556 364.927 311.301C365.474 312.051 365.974 312.812 366.433 313.588C366.896 314.359 367.308 315.145 367.672 315.937C368.042 316.728 368.36 317.53 368.63 318.338C368.901 319.14 369.12 319.947 369.292 320.76C369.464 321.567 369.584 322.374 369.656 323.181C369.729 323.989 369.75 324.786 369.719 325.583C369.688 326.374 369.61 327.161 369.479 327.937C369.349 328.713 369.167 329.473 368.938 330.218C368.709 330.968 368.427 331.702 368.099 332.416C367.771 333.129 367.401 333.822 366.979 334.499C366.558 335.171 366.089 335.822 365.578 336.447C365.063 337.077 364.511 337.676 363.912 338.249C363.318 338.822 362.677 339.369 362.005 339.885C361.328 340.395 360.615 340.879 359.865 341.333C359.115 341.78 358.334 342.197 357.516 342.583C356.703 342.963 355.86 343.312 354.985 343.624C354.115 343.937 353.214 344.208 352.292 344.447C351.37 344.681 350.427 344.879 349.464 345.041C348.5 345.197 347.521 345.317 346.531 345.4C345.537 345.478 344.531 345.52 343.516 345.525C342.495 345.525 341.474 345.489 340.448 345.411C339.422 345.333 338.391 345.213 337.36 345.056C336.328 344.9 335.302 344.708 334.281 344.473C333.261 344.239 332.245 343.968 331.245 343.661C330.24 343.353 329.25 343.01 328.271 342.629C327.292 342.249 326.334 341.832 325.396 341.385C324.453 340.937 323.537 340.458 322.646 339.942C321.75 339.431 320.88 338.89 320.042 338.317C319.203 337.744 318.396 337.15 317.615 336.525C316.839 335.9 316.099 335.249 315.391 334.577C314.683 333.905 314.016 333.213 313.386 332.499C312.755 331.786 312.167 331.056 311.615 330.312C311.068 329.562 310.568 328.801 310.11 328.025C309.646 327.254 309.235 326.468 308.87 325.676C308.5 324.879 308.183 324.083 307.912 323.275C307.641 322.473 307.422 321.666 307.25 320.853C307.078 320.046 306.959 319.239 306.886 318.431C306.813 317.624 306.792 316.827 306.823 316.03C306.854 315.239 306.933 314.452 307.063 313.676C307.193 312.9 307.375 312.14 307.604 311.39C307.834 310.645 308.115 309.911 308.443 309.197C308.771 308.484 309.146 307.786 309.563 307.114C309.985 306.442 310.453 305.791 310.964 305.161C311.479 304.536 312.031 303.937 312.63 303.364C313.224 302.791 313.865 302.244 314.537 301.728C315.214 301.213 315.927 300.734 316.677 300.28C317.427 299.832 318.209 299.416 319.026 299.03C319.839 298.645 320.683 298.301 321.558 297.989C322.427 297.676 323.328 297.405 324.25 297.166C325.172 296.931 326.115 296.734 327.078 296.572C328.042 296.416 329.021 296.296 330.016 296.213C331.005 296.129 332.011 296.093 333.026 296.088C334.047 296.088 335.068 296.124 336.094 296.202C337.12 296.28 338.151 296.4 339.183 296.556C340.214 296.713 341.24 296.905 342.261 297.14C343.281 297.374 344.297 297.645 345.297 297.952Z" fill="#AFD8F9"/>
<path d="M364.427 315.416C364.854 315.546 365.245 315.76 365.609 316.051C365.974 316.343 366.307 316.707 366.599 317.15C366.891 317.593 367.141 318.103 367.349 318.676C367.557 319.254 367.719 319.885 367.833 320.572C367.953 321.26 368.021 321.989 368.042 322.76C368.057 323.53 368.031 324.332 367.953 325.161C367.875 325.984 367.75 326.822 367.583 327.676C367.412 328.525 367.193 329.374 366.938 330.213C366.677 331.056 366.38 331.874 366.042 332.676C365.708 333.478 365.339 334.239 364.938 334.968C364.537 335.697 364.109 336.374 363.662 336.999C363.208 337.629 362.745 338.192 362.26 338.697C361.776 339.202 361.292 339.629 360.792 339.989C360.297 340.348 359.802 340.629 359.313 340.832C358.823 341.036 358.344 341.155 357.88 341.192C357.417 341.228 356.969 341.181 356.547 341.051C356.125 340.921 355.729 340.713 355.365 340.421C355 340.129 354.672 339.76 354.38 339.317C354.089 338.874 353.839 338.369 353.63 337.791C353.422 337.218 353.255 336.582 353.141 335.895C353.026 335.213 352.958 334.478 352.938 333.707C352.917 332.937 352.943 332.14 353.021 331.312C353.099 330.484 353.224 329.645 353.396 328.791C353.568 327.942 353.781 327.098 354.042 326.254C354.297 325.411 354.594 324.593 354.932 323.791C355.271 322.994 355.635 322.228 356.037 321.499C356.438 320.77 356.865 320.093 357.318 319.468C357.766 318.838 358.234 318.275 358.714 317.77C359.198 317.27 359.688 316.838 360.182 316.478C360.677 316.119 361.172 315.838 361.662 315.635C362.151 315.431 362.63 315.312 363.094 315.275C363.563 315.239 364.005 315.286 364.427 315.416Z" fill="#4991C9"/>
<path d="M337.594 306.421C347.396 309.431 354.354 315.088 355.344 311.864C356.333 308.645 349.193 303.593 339.386 300.588C329.589 297.577 320.839 297.749 319.849 300.973C318.859 304.192 327.797 303.405 337.594 306.421Z" fill="white"/>
<path d="M396.031 323.353C406.849 316.051 395.734 314.619 395.734 314.619L379.073 314.067C385.927 303.041 384.281 294.687 381.573 291.14C379.927 288.989 376.969 290.593 375.74 292.833C375.74 292.833 373.021 303.301 368.37 313.838C365.755 319.744 356.771 315.635 355.766 328.817C355.12 337.306 368.219 342.583 376.198 342.853L389.958 342.338C398.276 340.635 392.495 335.655 394.948 332.806C400.052 326.864 393.823 324.843 396.026 323.353H396.031Z" fill="black"/>
</svg>
