<svg width="1280" height="720" viewBox="0 0 1280 720" fill="none" xmlns="http://www.w3.org/2000/svg">
<g clip-path="url(#clip0_602_83)">
<path d="M1260 6.10352e-05H20C8.9543 6.10352e-05 0 8.95437 0 20.0001V700C0 711.046 8.9543 720 20 720H1260C1271.05 720 1280 711.046 1280 700V20.0001C1280 8.95437 1271.05 6.10352e-05 1260 6.10352e-05Z" fill="url(#paint0_linear_602_83)"/>
<g style="mix-blend-mode:screen" filter="url(#filter0_f_602_83)">
<path style="mix-blend-mode:screen" d="M-34.7324 837.132C-19.1207 851.147 3.87419 849.005 16.628 832.347L173.907 626.917C186.661 610.259 184.344 585.393 168.733 571.377C153.121 557.362 130.126 559.504 117.372 576.163L-39.9071 781.592C-52.6609 798.25 -50.3441 823.116 -34.7324 837.132Z" fill="url(#paint1_radial_602_83)"/>
</g>
<g style="mix-blend-mode:screen" filter="url(#filter1_f_602_83)">
<path style="mix-blend-mode:screen" d="M-173.888 710.179C-74.4156 767.7 46.4149 730.297 95.994 626.636L123.229 569.693C172.808 466.033 132.361 335.37 32.8883 277.849C-66.5845 220.328 -187.415 257.731 -236.994 361.391L-264.229 418.334C-313.808 521.994 -273.361 652.658 -173.888 710.179Z" fill="url(#paint2_radial_602_83)"/>
</g>
<g style="mix-blend-mode:screen" filter="url(#filter2_f_602_83)">
<path style="mix-blend-mode:screen" d="M1695.42 1275.43C1828.14 1287.41 1937.01 1189.09 1938.59 1055.84L1945.95 433.353C1947.53 300.1 1841.21 182.37 1708.49 170.396L1146.38 119.682C1013.66 107.707 904.788 206.022 903.212 339.275L895.853 961.763C894.277 1095.02 1000.59 1212.74 1133.32 1224.72L1695.42 1275.43Z" fill="url(#paint3_radial_602_83)"/>
</g>
<g style="mix-blend-mode:overlay">
<g style="mix-blend-mode:overlay">
<path d="M8.06382 588.152C-0.881296 645.277 13.372 743.554 141.946 679.663C302.664 599.8 760.119 440.653 658.307 747.391" stroke="white" stroke-width="0.697114"/>
</g>
<g style="mix-blend-mode:overlay">
<path d="M520.315 -274.075C628.683 174.507 -162.899 -84.9768 41.1779 -17.7021C592.343 163.991 370.525 576.567 608.894 784.936" stroke="white" stroke-width="0.697114"/>
</g>
<g style="mix-blend-mode:overlay">
<path d="M12.9869 563.653C7.10764 633.596 -3.94149 718.878 126.819 659.353C299.626 588.629 734.139 446.665 643.468 750.839" stroke="white" stroke-width="0.697114"/>
</g>
<g style="mix-blend-mode:overlay">
<path d="M18.243 538.754C15.4779 621.504 -20.9224 693.886 112.04 638.718C296.973 577.087 708.61 452.394 629.07 753.962" stroke="white" stroke-width="0.697114"/>
</g>
<g style="mix-blend-mode:overlay">
<path d="M23.7823 513.503C24.1796 609.048 -37.6205 668.627 97.5621 617.807C294.654 565.223 683.482 457.885 615.062 756.807" stroke="white" stroke-width="0.697114"/>
</g>
<g style="mix-blend-mode:overlay">
<path d="M29.5632 487.938C33.1709 596.266 -54.0771 643.138 83.342 596.657C292.629 553.074 658.713 463.178 601.404 759.412" stroke="white" stroke-width="0.697114"/>
</g>
<g style="mix-blend-mode:overlay">
<path d="M35.551 462.09C42.4173 583.19 -70.3267 617.45 69.3457 575.3C290.862 540.673 634.27 468.302 588.061 761.808" stroke="white" stroke-width="0.697114"/>
</g>
<g style="mix-blend-mode:overlay">
<path d="M41.7171 435.987C51.8901 569.847 -86.3975 591.592 55.545 553.764C289.324 528.046 610.125 473.286 575.005 764.023" stroke="white" stroke-width="0.697114"/>
</g>
<g style="mix-blend-mode:overlay">
<path d="M48.0367 409.652C61.5645 556.26 -102.314 565.585 41.9152 532.071C287.992 515.215 586.252 478.152 562.211 766.079" stroke="white" stroke-width="0.697114"/>
</g>
<g style="mix-blend-mode:overlay">
<path d="M54.4888 383.103C71.4194 542.447 -118.098 539.45 28.4355 510.241C286.844 502.201 562.631 482.918 549.659 767.995" stroke="white" stroke-width="0.697114"/>
</g>
<g style="mix-blend-mode:overlay">
<path d="M61.0552 356.359C81.4367 528.426 -133.765 513.203 15.0879 488.29C285.863 489.019 539.245 487.602 537.33 769.788" stroke="white" stroke-width="0.697114"/>
</g>
<g style="mix-blend-mode:overlay">
<path d="M67.7204 329.434C91.6005 514.211 -149.333 486.859 1.85706 466.233C285.032 475.685 516.077 492.217 525.208 771.472" stroke="white" stroke-width="0.697114"/>
</g>
<g style="mix-blend-mode:overlay">
<path d="M74.47 302.339C101.897 499.815 -164.815 460.431 -11.271 444.083C284.337 462.211 493.115 496.776 513.281 773.059" stroke="white" stroke-width="0.697114"/>
</g>
<g style="mix-blend-mode:overlay">
<path d="M82.6764 276.406C113.698 486.567 -178.838 435.248 -22.9239 423.17C285.152 449.927 471.73 502.61 502.921 775.88" stroke="white" stroke-width="0.697114"/>
</g>
<g style="mix-blend-mode:overlay">
<path d="M97.6291 256.665C132.293 479.499 -186.113 416.342 -27.8119 408.524C292.764 443.863 457.213 514.747 499.416 784.964" stroke="white" stroke-width="0.697114"/>
</g>
<g style="mix-blend-mode:overlay">
<path d="M112.748 236.835C151.102 472.328 -193.22 397.43 -32.5151 393.863C300.595 437.738 442.983 526.906 496.188 794.029" stroke="white" stroke-width="0.697114"/>
</g>
<g style="mix-blend-mode:overlay">
<path d="M128.004 216.903C170.096 465.042 -200.187 378.501 -37.0616 379.177C308.616 431.54 429.013 539.075 493.207 803.064" stroke="white" stroke-width="0.697114"/>
</g>
<g style="mix-blend-mode:overlay">
<path d="M143.376 196.863C189.254 457.636 -207.035 359.549 -41.4729 364.457C316.805 425.262 415.281 551.247 490.453 812.062" stroke="white" stroke-width="0.697114"/>
</g>
<g style="mix-blend-mode:overlay">
<path d="M158.847 176.712C208.558 450.104 -213.78 340.57 -45.7653 349.702C325.146 418.9 401.77 563.419 487.909 821.019" stroke="white" stroke-width="0.697114"/>
</g>
<g style="mix-blend-mode:overlay">
<path d="M174.404 156.448C227.997 442.446 -220.437 321.561 -49.9523 334.908C333.625 412.452 388.468 575.588 485.561 829.932" stroke="white" stroke-width="0.697114"/>
</g>
<g style="mix-blend-mode:overlay">
<path d="M190.036 136.07C247.557 434.66 -227.015 302.523 -54.0448 320.075C342.232 405.918 375.364 587.752 483.399 838.801" stroke="white" stroke-width="0.697114"/>
</g>
<g style="mix-blend-mode:overlay">
<path d="M210.245 110.699C271.743 421.868 -229.012 278.576 -53.5392 300.324C355.469 394.419 366.961 595.034 485.926 842.747" stroke="white" stroke-width="0.697114"/>
</g>
<g style="mix-blend-mode:overlay">
<path d="M238.722 76.2688C304.244 400.002 -222.738 245.654 -44.7457 271.589C377.026 373.887 366.949 593.365 496.833 837.702" stroke="white" stroke-width="0.697114"/>
</g>
<g style="mix-blend-mode:overlay">
<path d="M267.147 41.7328C336.74 378.017 -216.511 212.711 -35.9839 242.823C398.584 353.277 367.009 591.699 507.799 832.62" stroke="white" stroke-width="0.697114"/>
</g>
<g style="mix-blend-mode:overlay">
<path d="M295.518 7.08948C369.23 355.91 -210.334 179.744 -27.2556 214.024C420.141 332.586 367.139 590.035 518.822 827.499" stroke="white" stroke-width="0.697114"/>
</g>
<g style="mix-blend-mode:overlay">
<path d="M323.831 -27.663C401.71 333.679 -204.21 146.753 -18.5634 185.19C441.693 311.813 367.336 588.37 529.9 822.337" stroke="white" stroke-width="0.697114"/>
</g>
<g style="mix-blend-mode:overlay">
<path d="M352.086 -62.526C434.178 311.324 -198.139 113.735 -9.90825 156.321C463.241 290.956 367.6 586.702 541.033 817.132" stroke="white" stroke-width="0.697114"/>
</g>
<g style="mix-blend-mode:overlay">
<path d="M380.281 -97.5004C466.634 288.842 -192.124 80.6897 -1.292 127.415C484.781 270.014 367.93 585.03 552.217 811.883" stroke="white" stroke-width="0.697114"/>
</g>
<g style="mix-blend-mode:overlay">
<path d="M408.415 -132.587C499.076 266.234 -186.164 47.6166 7.28443 98.4713C506.313 248.986 368.323 583.353 563.453 806.589" stroke="white" stroke-width="0.697114"/>
</g>
<g style="mix-blend-mode:overlay">
<path d="M436.485 -167.787C531.502 243.497 -180.262 14.5144 15.8197 69.4889C527.836 227.87 368.779 581.669 574.739 801.249" stroke="white" stroke-width="0.697114"/>
</g>
<g style="mix-blend-mode:overlay">
<path d="M464.492 -203.1C563.912 220.632 -174.417 -18.6171 24.3134 40.4672C549.348 206.668 369.298 579.979 586.074 795.861" stroke="white" stroke-width="0.697114"/>
</g>
<g style="mix-blend-mode:overlay">
<path d="M492.434 -238.527C596.304 197.638 -168.632 -51.7784 32.7644 11.406C570.849 185.377 369.878 578.281 597.457 790.426" stroke="white" stroke-width="0.697114"/>
</g>
</g>
<g style="mix-blend-mode:screen" filter="url(#filter3_f_602_83)">
<path style="mix-blend-mode:screen" d="M608.63 490.812C607.73 500.649 615.007 508.729 624.885 508.858L1006.76 513.862C1016.64 513.991 1025.38 506.121 1026.28 496.284C1027.18 486.447 1019.9 478.367 1010.02 478.238L628.145 473.234C618.267 473.105 609.53 480.975 608.63 490.812Z" fill="url(#paint4_radial_602_83)"/>
</g>
</g>
<defs>
<filter id="filter0_f_602_83" x="-168.788" y="441.475" width="471.576" height="525.559" filterUnits="userSpaceOnUse" color-interpolation-filters="sRGB">
<feFlood flood-opacity="0" result="BackgroundImageFix"/>
<feBlend mode="normal" in="SourceGraphic" in2="BackgroundImageFix" result="shape"/>
<feGaussianBlur stdDeviation="60.323" result="effect1_foregroundBlur_602_83"/>
</filter>
<filter id="filter1_f_602_83" x="-406.051" y="130.203" width="671.102" height="727.621" filterUnits="userSpaceOnUse" color-interpolation-filters="sRGB">
<feFlood flood-opacity="0" result="BackgroundImageFix"/>
<feBlend mode="normal" in="SourceGraphic" in2="BackgroundImageFix" result="shape"/>
<feGaussianBlur stdDeviation="60.323" result="effect1_foregroundBlur_602_83"/>
</filter>
<filter id="filter2_f_602_83" x="775.19" y="-1.95155" width="1291.42" height="1399.02" filterUnits="userSpaceOnUse" color-interpolation-filters="sRGB">
<feFlood flood-opacity="0" result="BackgroundImageFix"/>
<feBlend mode="normal" in="SourceGraphic" in2="BackgroundImageFix" result="shape"/>
<feGaussianBlur stdDeviation="60.323" result="effect1_foregroundBlur_602_83"/>
</filter>
<filter id="filter3_f_602_83" x="456.63" y="321.308" width="721.65" height="344.48" filterUnits="userSpaceOnUse" color-interpolation-filters="sRGB">
<feFlood flood-opacity="0" result="BackgroundImageFix"/>
<feBlend mode="normal" in="SourceGraphic" in2="BackgroundImageFix" result="shape"/>
<feGaussianBlur stdDeviation="75.9623" result="effect1_foregroundBlur_602_83"/>
</filter>
<linearGradient id="paint0_linear_602_83" x1="-0.0199189" y1="719.996" x2="615.293" y2="-373.897" gradientUnits="userSpaceOnUse">
<stop stop-color="#000B2A"/>
<stop offset="1" stop-color="#011E4C"/>
</linearGradient>
<radialGradient id="paint1_radial_602_83" cx="0" cy="0" r="1" gradientUnits="userSpaceOnUse" gradientTransform="translate(22.7168 753.36) rotate(-77.8648) scale(76.1853 74.6191)">
<stop stop-color="#444CE4"/>
<stop offset="1" stop-color="#F257A0"/>
</radialGradient>
<radialGradient id="paint2_radial_602_83" cx="0" cy="0" r="1" gradientUnits="userSpaceOnUse" gradientTransform="translate(43.0979 471.402) rotate(156.091) scale(201.377 213.361)">
<stop stop-color="#FFD7D7"/>
<stop offset="0.0001"/>
<stop offset="0.778467" stop-color="#6343FF"/>
<stop offset="1" stop-color="#EE8969" stop-opacity="0"/>
</radialGradient>
<radialGradient id="paint3_radial_602_83" cx="0" cy="0" r="1" gradientUnits="userSpaceOnUse" gradientTransform="translate(1656.06 541.786) rotate(133.863) scale(481.12 518.147)">
<stop stop-color="#FFD7D7"/>
<stop offset="0.0001"/>
<stop offset="0.778467" stop-color="#6343FF"/>
<stop offset="1" stop-color="#EE8969" stop-opacity="0"/>
</radialGradient>
<radialGradient id="paint4_radial_602_83" cx="0" cy="0" r="1" gradientUnits="userSpaceOnUse" gradientTransform="translate(734.919 489.966) rotate(-9.59641) scale(85.3597 39.1326)">
<stop stop-color="#444CE4"/>
<stop offset="1" stop-color="#F257A0"/>
</radialGradient>
<clipPath id="clip0_602_83">
<rect width="1280" height="720" fill="white"/>
</clipPath>
</defs>
</svg>
